<mxfile host="Electron" agent="Mozilla/5.0 (Windows NT 10.0; Win64; x64) AppleWebKit/537.36 (KHTML, like Gecko) draw.io/24.7.5 Chrome/126.0.6478.183 Electron/31.3.0 Safari/537.36" version="24.7.5">
  <diagram name="PÃ¡gina-1" id="O3JyGVQpDG3Lo8o7kQD4">
    <mxGraphModel dx="1687" dy="993" grid="1" gridSize="10" guides="1" tooltips="1" connect="1" arrows="1" fold="1" page="1" pageScale="1" pageWidth="827" pageHeight="1169" math="0" shadow="0">
      <root>
        <mxCell id="0" />
        <mxCell id="1" parent="0" />
        <mxCell id="xve0XWHkX6E9ICd-36VI-22" style="edgeStyle=orthogonalEdgeStyle;rounded=0;orthogonalLoop=1;jettySize=auto;html=1;" parent="1" source="xve0XWHkX6E9ICd-36VI-2" target="xve0XWHkX6E9ICd-36VI-21" edge="1">
          <mxGeometry relative="1" as="geometry" />
        </mxCell>
        <mxCell id="xve0XWHkX6E9ICd-36VI-2" value="Option to Change V1" style="rounded=0;whiteSpace=wrap;html=1;" parent="1" vertex="1">
          <mxGeometry x="524" y="140" width="120" height="60" as="geometry" />
        </mxCell>
        <mxCell id="xve0XWHkX6E9ICd-36VI-4" style="edgeStyle=orthogonalEdgeStyle;rounded=0;orthogonalLoop=1;jettySize=auto;html=1;entryX=0.458;entryY=0.45;entryDx=0;entryDy=0;entryPerimeter=0;" parent="1" source="xve0XWHkX6E9ICd-36VI-3" target="xve0XWHkX6E9ICd-36VI-13" edge="1">
          <mxGeometry relative="1" as="geometry">
            <Array as="points">
              <mxPoint x="249" y="389" />
            </Array>
          </mxGeometry>
        </mxCell>
        <mxCell id="xve0XWHkX6E9ICd-36VI-5" value="Yes" style="edgeLabel;html=1;align=center;verticalAlign=middle;resizable=0;points=[];" parent="xve0XWHkX6E9ICd-36VI-4" vertex="1" connectable="0">
          <mxGeometry x="-0.287" y="-2" relative="1" as="geometry">
            <mxPoint x="17" as="offset" />
          </mxGeometry>
        </mxCell>
        <mxCell id="xve0XWHkX6E9ICd-36VI-3" value="isManualMode" style="rhombus;whiteSpace=wrap;html=1;" parent="1" vertex="1">
          <mxGeometry x="194" y="120" width="110" height="100" as="geometry" />
        </mxCell>
        <mxCell id="xve0XWHkX6E9ICd-36VI-23" style="edgeStyle=orthogonalEdgeStyle;rounded=0;orthogonalLoop=1;jettySize=auto;html=1;" parent="1" source="xve0XWHkX6E9ICd-36VI-6" target="xve0XWHkX6E9ICd-36VI-21" edge="1">
          <mxGeometry relative="1" as="geometry" />
        </mxCell>
        <mxCell id="xve0XWHkX6E9ICd-36VI-6" value="Option to Change&amp;nbsp;V2" style="rounded=0;whiteSpace=wrap;html=1;" parent="1" vertex="1">
          <mxGeometry x="524" y="240" width="120" height="60" as="geometry" />
        </mxCell>
        <mxCell id="xve0XWHkX6E9ICd-36VI-24" style="edgeStyle=orthogonalEdgeStyle;rounded=0;orthogonalLoop=1;jettySize=auto;html=1;entryX=0.5;entryY=1;entryDx=0;entryDy=0;" parent="1" source="xve0XWHkX6E9ICd-36VI-7" target="xve0XWHkX6E9ICd-36VI-21" edge="1">
          <mxGeometry relative="1" as="geometry" />
        </mxCell>
        <mxCell id="xve0XWHkX6E9ICd-36VI-7" value="Option to Change&amp;nbsp;Pump" style="rounded=0;whiteSpace=wrap;html=1;" parent="1" vertex="1">
          <mxGeometry x="524" y="350" width="120" height="60" as="geometry" />
        </mxCell>
        <mxCell id="xve0XWHkX6E9ICd-36VI-26" style="edgeStyle=orthogonalEdgeStyle;rounded=0;orthogonalLoop=1;jettySize=auto;html=1;entryX=0.5;entryY=1;entryDx=0;entryDy=0;" parent="1" source="xve0XWHkX6E9ICd-36VI-8" target="xve0XWHkX6E9ICd-36VI-21" edge="1">
          <mxGeometry relative="1" as="geometry" />
        </mxCell>
        <mxCell id="xve0XWHkX6E9ICd-36VI-8" value="Option to Change&amp;nbsp;Resistor" style="rounded=0;whiteSpace=wrap;html=1;" parent="1" vertex="1">
          <mxGeometry x="524" y="455" width="120" height="60" as="geometry" />
        </mxCell>
        <mxCell id="xve0XWHkX6E9ICd-36VI-11" style="edgeStyle=orthogonalEdgeStyle;rounded=0;orthogonalLoop=1;jettySize=auto;html=1;entryX=0;entryY=0.5;entryDx=0;entryDy=0;" parent="1" source="xve0XWHkX6E9ICd-36VI-9" target="xve0XWHkX6E9ICd-36VI-7" edge="1">
          <mxGeometry relative="1" as="geometry" />
        </mxCell>
        <mxCell id="xve0XWHkX6E9ICd-36VI-12" value="No" style="edgeLabel;html=1;align=center;verticalAlign=middle;resizable=0;points=[];" parent="xve0XWHkX6E9ICd-36VI-11" vertex="1" connectable="0">
          <mxGeometry x="-0.219" y="1" relative="1" as="geometry">
            <mxPoint x="9" y="-9" as="offset" />
          </mxGeometry>
        </mxCell>
        <mxCell id="xve0XWHkX6E9ICd-36VI-27" style="edgeStyle=orthogonalEdgeStyle;rounded=0;orthogonalLoop=1;jettySize=auto;html=1;entryX=0;entryY=0.5;entryDx=0;entryDy=0;" parent="1" source="xve0XWHkX6E9ICd-36VI-9" target="xve0XWHkX6E9ICd-36VI-21" edge="1">
          <mxGeometry relative="1" as="geometry">
            <Array as="points">
              <mxPoint x="404" y="330" />
            </Array>
          </mxGeometry>
        </mxCell>
        <mxCell id="xve0XWHkX6E9ICd-36VI-29" value="Yes" style="edgeLabel;html=1;align=center;verticalAlign=middle;resizable=0;points=[];" parent="xve0XWHkX6E9ICd-36VI-27" vertex="1" connectable="0">
          <mxGeometry x="-0.1247" relative="1" as="geometry">
            <mxPoint x="33" y="-10" as="offset" />
          </mxGeometry>
        </mxCell>
        <mxCell id="xve0XWHkX6E9ICd-36VI-9" value="isWaterMax" style="rhombus;whiteSpace=wrap;html=1;" parent="1" vertex="1">
          <mxGeometry x="364" y="340" width="80" height="80" as="geometry" />
        </mxCell>
        <mxCell id="xve0XWHkX6E9ICd-36VI-18" style="edgeStyle=orthogonalEdgeStyle;rounded=0;orthogonalLoop=1;jettySize=auto;html=1;entryX=0;entryY=0.5;entryDx=0;entryDy=0;" parent="1" source="xve0XWHkX6E9ICd-36VI-10" target="xve0XWHkX6E9ICd-36VI-8" edge="1">
          <mxGeometry relative="1" as="geometry" />
        </mxCell>
        <mxCell id="xve0XWHkX6E9ICd-36VI-19" value="No" style="edgeLabel;html=1;align=center;verticalAlign=middle;resizable=0;points=[];" parent="xve0XWHkX6E9ICd-36VI-18" vertex="1" connectable="0">
          <mxGeometry x="-0.275" relative="1" as="geometry">
            <mxPoint x="11" y="-9" as="offset" />
          </mxGeometry>
        </mxCell>
        <mxCell id="xve0XWHkX6E9ICd-36VI-28" style="edgeStyle=orthogonalEdgeStyle;rounded=0;orthogonalLoop=1;jettySize=auto;html=1;entryX=0.5;entryY=1;entryDx=0;entryDy=0;" parent="1" source="xve0XWHkX6E9ICd-36VI-10" target="xve0XWHkX6E9ICd-36VI-21" edge="1">
          <mxGeometry relative="1" as="geometry">
            <Array as="points">
              <mxPoint x="404" y="430" />
              <mxPoint x="769" y="430" />
            </Array>
          </mxGeometry>
        </mxCell>
        <mxCell id="xve0XWHkX6E9ICd-36VI-30" value="Yes" style="edgeLabel;html=1;align=center;verticalAlign=middle;resizable=0;points=[];" parent="xve0XWHkX6E9ICd-36VI-28" vertex="1" connectable="0">
          <mxGeometry x="-0.0931" relative="1" as="geometry">
            <mxPoint x="-18" y="-10" as="offset" />
          </mxGeometry>
        </mxCell>
        <mxCell id="xve0XWHkX6E9ICd-36VI-10" value="isWaterAlarm" style="rhombus;whiteSpace=wrap;html=1;" parent="1" vertex="1">
          <mxGeometry x="359" y="440" width="90" height="90" as="geometry" />
        </mxCell>
        <mxCell id="xve0XWHkX6E9ICd-36VI-15" style="edgeStyle=orthogonalEdgeStyle;rounded=0;orthogonalLoop=1;jettySize=auto;html=1;exitX=0.75;exitY=0.5;exitDx=0;exitDy=0;exitPerimeter=0;entryX=0;entryY=0.5;entryDx=0;entryDy=0;" parent="1" source="xve0XWHkX6E9ICd-36VI-13" target="xve0XWHkX6E9ICd-36VI-2" edge="1">
          <mxGeometry relative="1" as="geometry">
            <mxPoint x="334" y="351.25" as="sourcePoint" />
            <mxPoint x="566.5" y="160" as="targetPoint" />
            <Array as="points">
              <mxPoint x="324" y="361" />
              <mxPoint x="324" y="170" />
            </Array>
          </mxGeometry>
        </mxCell>
        <mxCell id="xve0XWHkX6E9ICd-36VI-16" style="edgeStyle=orthogonalEdgeStyle;rounded=0;orthogonalLoop=1;jettySize=auto;html=1;exitX=0.553;exitY=0.65;exitDx=0;exitDy=0;exitPerimeter=0;entryX=0;entryY=0.5;entryDx=0;entryDy=0;" parent="1" source="xve0XWHkX6E9ICd-36VI-13" target="xve0XWHkX6E9ICd-36VI-9" edge="1">
          <mxGeometry relative="1" as="geometry" />
        </mxCell>
        <mxCell id="xve0XWHkX6E9ICd-36VI-17" style="edgeStyle=orthogonalEdgeStyle;rounded=0;orthogonalLoop=1;jettySize=auto;html=1;exitX=0.25;exitY=0.5;exitDx=0;exitDy=0;exitPerimeter=0;entryX=0;entryY=0.5;entryDx=0;entryDy=0;" parent="1" source="xve0XWHkX6E9ICd-36VI-13" target="xve0XWHkX6E9ICd-36VI-10" edge="1">
          <mxGeometry relative="1" as="geometry" />
        </mxCell>
        <mxCell id="xve0XWHkX6E9ICd-36VI-20" style="edgeStyle=orthogonalEdgeStyle;rounded=0;orthogonalLoop=1;jettySize=auto;html=1;exitX=0.75;exitY=0.5;exitDx=0;exitDy=0;exitPerimeter=0;entryX=0;entryY=0.5;entryDx=0;entryDy=0;" parent="1" source="xve0XWHkX6E9ICd-36VI-13" target="xve0XWHkX6E9ICd-36VI-6" edge="1">
          <mxGeometry relative="1" as="geometry">
            <Array as="points">
              <mxPoint x="324" y="361" />
              <mxPoint x="324" y="270" />
            </Array>
          </mxGeometry>
        </mxCell>
        <mxCell id="xve0XWHkX6E9ICd-36VI-13" value="" style="shape=line;html=1;strokeWidth=6;strokeColor=#ff0000;rotation=-90;" parent="1" vertex="1">
          <mxGeometry x="244" y="380" width="95" height="10" as="geometry" />
        </mxCell>
        <mxCell id="xve0XWHkX6E9ICd-36VI-36" style="edgeStyle=orthogonalEdgeStyle;rounded=0;orthogonalLoop=1;jettySize=auto;html=1;entryX=0;entryY=0.5;entryDx=0;entryDy=0;" parent="1" source="xve0XWHkX6E9ICd-36VI-21" target="xve0XWHkX6E9ICd-36VI-31" edge="1">
          <mxGeometry relative="1" as="geometry">
            <Array as="points">
              <mxPoint x="804" y="330" />
              <mxPoint x="804" y="40" />
              <mxPoint x="104" y="40" />
              <mxPoint x="104" y="170" />
            </Array>
          </mxGeometry>
        </mxCell>
        <mxCell id="xve0XWHkX6E9ICd-36VI-21" value="" style="ellipse;html=1;shape=endState;fillColor=#000000;strokeColor=#ff0000;" parent="1" vertex="1">
          <mxGeometry x="754" y="315" width="30" height="30" as="geometry" />
        </mxCell>
        <mxCell id="xve0XWHkX6E9ICd-36VI-33" style="edgeStyle=orthogonalEdgeStyle;rounded=0;orthogonalLoop=1;jettySize=auto;html=1;entryX=0;entryY=0.5;entryDx=0;entryDy=0;" parent="1" source="xve0XWHkX6E9ICd-36VI-31" target="xve0XWHkX6E9ICd-36VI-3" edge="1">
          <mxGeometry relative="1" as="geometry" />
        </mxCell>
        <mxCell id="xve0XWHkX6E9ICd-36VI-31" value="" style="ellipse;html=1;shape=startState;fillColor=#000000;strokeColor=#ff0000;" parent="1" vertex="1">
          <mxGeometry x="124" y="155" width="30" height="30" as="geometry" />
        </mxCell>
        <mxCell id="NpD5K99SZVwvwFvOVfnl-2" style="edgeStyle=orthogonalEdgeStyle;rounded=0;orthogonalLoop=1;jettySize=auto;html=1;entryX=0;entryY=0.5;entryDx=0;entryDy=0;" edge="1" parent="1" source="xve0XWHkX6E9ICd-36VI-41" target="NpD5K99SZVwvwFvOVfnl-1">
          <mxGeometry relative="1" as="geometry" />
        </mxCell>
        <mxCell id="NpD5K99SZVwvwFvOVfnl-3" value="Yes" style="edgeLabel;html=1;align=center;verticalAlign=middle;resizable=0;points=[];" vertex="1" connectable="0" parent="NpD5K99SZVwvwFvOVfnl-2">
          <mxGeometry x="-0.1273" y="-2" relative="1" as="geometry">
            <mxPoint x="1" y="-12" as="offset" />
          </mxGeometry>
        </mxCell>
        <mxCell id="NpD5K99SZVwvwFvOVfnl-16" style="edgeStyle=orthogonalEdgeStyle;rounded=0;orthogonalLoop=1;jettySize=auto;html=1;entryX=0;entryY=0.5;entryDx=0;entryDy=0;" edge="1" parent="1" source="xve0XWHkX6E9ICd-36VI-41" target="NpD5K99SZVwvwFvOVfnl-13">
          <mxGeometry relative="1" as="geometry">
            <Array as="points">
              <mxPoint x="259" y="585" />
            </Array>
          </mxGeometry>
        </mxCell>
        <mxCell id="NpD5K99SZVwvwFvOVfnl-19" value="No" style="edgeLabel;html=1;align=center;verticalAlign=middle;resizable=0;points=[];" vertex="1" connectable="0" parent="NpD5K99SZVwvwFvOVfnl-16">
          <mxGeometry x="0.4286" relative="1" as="geometry">
            <mxPoint y="-9" as="offset" />
          </mxGeometry>
        </mxCell>
        <mxCell id="xve0XWHkX6E9ICd-36VI-41" value="isAutoMode" style="rhombus;whiteSpace=wrap;html=1;" parent="1" vertex="1">
          <mxGeometry x="204" y="660" width="110" height="100" as="geometry" />
        </mxCell>
        <mxCell id="NpD5K99SZVwvwFvOVfnl-11" style="edgeStyle=orthogonalEdgeStyle;rounded=0;orthogonalLoop=1;jettySize=auto;html=1;entryX=0.5;entryY=1;entryDx=0;entryDy=0;" edge="1" parent="1" source="xve0XWHkX6E9ICd-36VI-64" target="NpD5K99SZVwvwFvOVfnl-10">
          <mxGeometry relative="1" as="geometry" />
        </mxCell>
        <mxCell id="xve0XWHkX6E9ICd-36VI-64" value="Run Destilation" style="rounded=0;whiteSpace=wrap;html=1;" parent="1" vertex="1">
          <mxGeometry x="524" y="680" width="120" height="60" as="geometry" />
        </mxCell>
        <mxCell id="NpD5K99SZVwvwFvOVfnl-4" style="edgeStyle=orthogonalEdgeStyle;rounded=0;orthogonalLoop=1;jettySize=auto;html=1;entryX=0;entryY=0.5;entryDx=0;entryDy=0;" edge="1" parent="1" source="NpD5K99SZVwvwFvOVfnl-1" target="xve0XWHkX6E9ICd-36VI-64">
          <mxGeometry relative="1" as="geometry" />
        </mxCell>
        <mxCell id="NpD5K99SZVwvwFvOVfnl-5" value="Yes" style="edgeLabel;html=1;align=center;verticalAlign=middle;resizable=0;points=[];" vertex="1" connectable="0" parent="NpD5K99SZVwvwFvOVfnl-4">
          <mxGeometry x="-0.1619" y="-1" relative="1" as="geometry">
            <mxPoint x="-2" y="-11" as="offset" />
          </mxGeometry>
        </mxCell>
        <mxCell id="NpD5K99SZVwvwFvOVfnl-17" style="edgeStyle=orthogonalEdgeStyle;rounded=0;orthogonalLoop=1;jettySize=auto;html=1;entryX=0.5;entryY=1;entryDx=0;entryDy=0;" edge="1" parent="1" source="NpD5K99SZVwvwFvOVfnl-1" target="NpD5K99SZVwvwFvOVfnl-13">
          <mxGeometry relative="1" as="geometry">
            <Array as="points">
              <mxPoint x="409" y="640" />
              <mxPoint x="339" y="640" />
            </Array>
          </mxGeometry>
        </mxCell>
        <mxCell id="NpD5K99SZVwvwFvOVfnl-18" value="No" style="edgeLabel;html=1;align=center;verticalAlign=middle;resizable=0;points=[];" vertex="1" connectable="0" parent="NpD5K99SZVwvwFvOVfnl-17">
          <mxGeometry x="-0.0119" y="-1" relative="1" as="geometry">
            <mxPoint x="-1" y="-9" as="offset" />
          </mxGeometry>
        </mxCell>
        <mxCell id="NpD5K99SZVwvwFvOVfnl-1" value="isTimer" style="rhombus;whiteSpace=wrap;html=1;" vertex="1" parent="1">
          <mxGeometry x="369" y="670" width="80" height="80" as="geometry" />
        </mxCell>
        <mxCell id="NpD5K99SZVwvwFvOVfnl-9" style="edgeStyle=orthogonalEdgeStyle;rounded=0;orthogonalLoop=1;jettySize=auto;html=1;entryX=0;entryY=0.5;entryDx=0;entryDy=0;exitX=0.5;exitY=1;exitDx=0;exitDy=0;" edge="1" parent="1" source="NpD5K99SZVwvwFvOVfnl-6" target="xve0XWHkX6E9ICd-36VI-41">
          <mxGeometry relative="1" as="geometry" />
        </mxCell>
        <mxCell id="NpD5K99SZVwvwFvOVfnl-6" value="Change Timer" style="rounded=0;whiteSpace=wrap;html=1;" vertex="1" parent="1">
          <mxGeometry x="24" y="570" width="120" height="60" as="geometry" />
        </mxCell>
        <mxCell id="NpD5K99SZVwvwFvOVfnl-14" style="edgeStyle=orthogonalEdgeStyle;rounded=0;orthogonalLoop=1;jettySize=auto;html=1;entryX=1;entryY=0.5;entryDx=0;entryDy=0;" edge="1" parent="1" source="NpD5K99SZVwvwFvOVfnl-10" target="NpD5K99SZVwvwFvOVfnl-13">
          <mxGeometry relative="1" as="geometry" />
        </mxCell>
        <mxCell id="NpD5K99SZVwvwFvOVfnl-10" value="Water Management" style="rounded=0;whiteSpace=wrap;html=1;" vertex="1" parent="1">
          <mxGeometry x="524" y="585" width="120" height="60" as="geometry" />
        </mxCell>
        <mxCell id="NpD5K99SZVwvwFvOVfnl-20" style="edgeStyle=orthogonalEdgeStyle;rounded=0;orthogonalLoop=1;jettySize=auto;html=1;entryX=0.5;entryY=1;entryDx=0;entryDy=0;" edge="1" parent="1" source="NpD5K99SZVwvwFvOVfnl-13" target="xve0XWHkX6E9ICd-36VI-31">
          <mxGeometry relative="1" as="geometry">
            <Array as="points">
              <mxPoint x="339" y="520" />
              <mxPoint x="174" y="520" />
              <mxPoint x="174" y="270" />
              <mxPoint x="139" y="270" />
            </Array>
          </mxGeometry>
        </mxCell>
        <mxCell id="NpD5K99SZVwvwFvOVfnl-13" value="" style="ellipse;html=1;shape=endState;fillColor=#000000;strokeColor=#ff0000;" vertex="1" parent="1">
          <mxGeometry x="324" y="570" width="30" height="30" as="geometry" />
        </mxCell>
        <mxCell id="NpD5K99SZVwvwFvOVfnl-24" style="edgeStyle=orthogonalEdgeStyle;rounded=0;orthogonalLoop=1;jettySize=auto;html=1;exitX=0.25;exitY=0.5;exitDx=0;exitDy=0;exitPerimeter=0;entryX=0.5;entryY=0;entryDx=0;entryDy=0;" edge="1" parent="1" source="NpD5K99SZVwvwFvOVfnl-21" target="NpD5K99SZVwvwFvOVfnl-6">
          <mxGeometry relative="1" as="geometry">
            <Array as="points">
              <mxPoint x="84" y="121" />
            </Array>
          </mxGeometry>
        </mxCell>
        <mxCell id="NpD5K99SZVwvwFvOVfnl-25" style="edgeStyle=orthogonalEdgeStyle;rounded=0;orthogonalLoop=1;jettySize=auto;html=1;exitX=0.75;exitY=0.5;exitDx=0;exitDy=0;exitPerimeter=0;entryX=0.5;entryY=0;entryDx=0;entryDy=0;" edge="1" parent="1" source="NpD5K99SZVwvwFvOVfnl-21" target="xve0XWHkX6E9ICd-36VI-21">
          <mxGeometry relative="1" as="geometry">
            <Array as="points">
              <mxPoint x="134" y="89" />
              <mxPoint x="134" y="60" />
              <mxPoint x="769" y="60" />
            </Array>
          </mxGeometry>
        </mxCell>
        <mxCell id="NpD5K99SZVwvwFvOVfnl-21" value="" style="shape=line;html=1;strokeWidth=6;strokeColor=#ff0000;rotation=-90;" vertex="1" parent="1">
          <mxGeometry x="134" y="100" width="65" height="10" as="geometry" />
        </mxCell>
        <mxCell id="NpD5K99SZVwvwFvOVfnl-22" style="edgeStyle=orthogonalEdgeStyle;rounded=0;orthogonalLoop=1;jettySize=auto;html=1;entryX=0.533;entryY=0.583;entryDx=0;entryDy=0;entryPerimeter=0;" edge="1" parent="1" source="xve0XWHkX6E9ICd-36VI-3" target="NpD5K99SZVwvwFvOVfnl-21">
          <mxGeometry relative="1" as="geometry">
            <Array as="points">
              <mxPoint x="249" y="103" />
            </Array>
          </mxGeometry>
        </mxCell>
        <mxCell id="NpD5K99SZVwvwFvOVfnl-23" value="No" style="edgeLabel;html=1;align=center;verticalAlign=middle;resizable=0;points=[];" vertex="1" connectable="0" parent="NpD5K99SZVwvwFvOVfnl-22">
          <mxGeometry x="-0.1332" relative="1" as="geometry">
            <mxPoint x="-9" y="-13" as="offset" />
          </mxGeometry>
        </mxCell>
      </root>
    </mxGraphModel>
  </diagram>
</mxfile>
